<svg xmlns="http://www.w3.org/2000/svg" version="1.1" xmlns:xlink="http://www.w3.org/1999/xlink" xmlns:svgjs="http://svgjs.dev/svgjs" width="2000" height="384" viewBox="0 0 2000 384"><g transform="matrix(1,0,0,1,-0.4660173173004978,-1.321489655172428)"><svg viewBox="0 0 302 58" data-background-color="#fee869" preserveAspectRatio="xMidYMid meet" height="384" width="2000" xmlns="http://www.w3.org/2000/svg" xmlns:xlink="http://www.w3.org/1999/xlink"><g id="tight-bounds" transform="matrix(1,0,0,1,0.07036861491238255,0.19960000000000377)"><svg viewBox="0 0 301.85926277017523 57.6008" height="57.6008" width="301.85926277017523"><g><svg viewBox="0 0 301.85926277017523 57.6008" height="57.6008" width="301.85926277017523"><g><svg viewBox="0 0 301.85926277017523 57.6008" height="57.6008" width="301.85926277017523"><g id="textblocktransform"><svg viewBox="0 0 301.85926277017523 57.6008" height="57.6008" width="301.85926277017523" id="textblock"><g><svg viewBox="0 0 301.85926277017523 57.6008" height="57.6008" width="301.85926277017523"><g><svg><g></g><g></g></svg></g><g><svg><g><svg></svg></g><g></g></svg></g><g id="text-0"><svg viewBox="0 0 301.85926277017523 57.6008" height="57.6008" width="301.85926277017523"><g transform="matrix(1,0,0,1,0,0)"><svg width="229.27059999999997" viewBox="1.25 -35 141.69 35.6" height="57.6008" data-palette-color="#222222"><g class="wordmark-text-0" data-fill-palette-color="primary"><path d="M35.55-24.35L39.95-24.35 32.85-1.2Q32.7-0.65 32.25-0.33 31.8 0 31.2 0L31.2 0 27.35 0Q26.75 0 26.28-0.38 25.8-0.75 25.7-1.35L25.7-1.35 21.7-17.9Q21.5-18.85 21.33-19.8 21.15-20.75 20.9-21.75L20.9-21.75 20.3-21.75Q20.1-20.75 19.88-19.8 19.65-18.85 19.45-17.9L19.45-17.9 15.5-1.35Q15.35-0.75 14.9-0.38 14.45 0 13.8 0L13.8 0 10 0Q9.4 0 8.95-0.33 8.5-0.65 8.35-1.2L8.35-1.2 1.25-24.35 5.65-24.35 10.7-6.4Q10.95-5.5 11.15-4.58 11.35-3.65 11.5-2.75L11.5-2.75 12.15-2.75Q12.4-3.65 12.63-4.58 12.85-5.5 13.05-6.4L13.05-6.4 17.1-23Q17.2-23.6 17.63-23.98 18.05-24.35 18.7-24.35L18.7-24.35 22.55-24.35Q23.15-24.35 23.58-23.98 24-23.6 24.15-22.95L24.15-22.95 28.15-6.4Q28.35-5.5 28.58-4.6 28.8-3.7 29-2.75L29-2.75 29.65-2.75Q29.9-3.7 30.05-4.58 30.2-5.45 30.5-6.4L30.5-6.4 35.55-24.35ZM56.6-24.95L56.6-24.95Q59.3-24.95 61.17-24.23 63.05-23.5 64-21.8 64.95-20.1 64.95-17.15L64.95-17.15 64.95 0 61.6 0 60.95-5.3 60.65-5.85 60.65-17.15Q60.65-19.4 59.62-20.38 58.6-21.35 55.7-21.35L55.7-21.35Q53.8-21.35 50.92-21.15 48.05-20.95 45.25-20.7L45.25-20.7 44.85-23.85Q46.55-24.15 48.57-24.4 50.6-24.65 52.7-24.8 54.8-24.95 56.6-24.95ZM50.5-15L62.95-15 62.9-11.8 51.25-11.75Q49.5-11.7 48.8-10.83 48.1-9.95 48.1-8.4L48.1-8.4 48.1-6.85Q48.1-4.95 49-4.08 49.9-3.2 51.9-3.2L51.9-3.2Q53.3-3.2 55.07-3.73 56.85-4.25 58.65-5.35 60.45-6.45 61.95-8.15L61.95-8.15 61.95-5Q61.4-4.3 60.37-3.38 59.35-2.45 57.92-1.58 56.5-0.7 54.77-0.13 53.05 0.45 51.05 0.45L51.05 0.45Q48.9 0.45 47.25-0.33 45.6-1.1 44.67-2.63 43.75-4.15 43.75-6.35L43.75-6.35 43.75-9Q43.75-11.85 45.52-13.43 47.3-15 50.5-15L50.5-15ZM72.6-35L76.85-35 76.8-6.7Q76.8-5.1 77.67-4.28 78.55-3.45 80.15-3.45L80.15-3.45 82.5-3.45 83-0.2Q82.55 0 81.72 0.15 80.9 0.3 80.02 0.38 79.15 0.45 78.55 0.45L78.55 0.45Q75.85 0.45 74.22-1.15 72.6-2.75 72.6-5.75L72.6-5.75 72.6-35ZM87.44-35L91.69-35 91.64-6.7Q91.64-5.1 92.52-4.28 93.39-3.45 94.99-3.45L94.99-3.45 97.34-3.45 97.84-0.2Q97.39 0 96.57 0.15 95.74 0.3 94.87 0.38 93.99 0.45 93.39 0.45L93.39 0.45Q90.69 0.45 89.07-1.15 87.44-2.75 87.44-5.75L87.44-5.75 87.44-35ZM112.24-24.95L112.24-24.95Q117.74-24.95 120.22-22.95 122.69-20.95 122.69-17L122.69-17Q122.74-13.75 121.34-11.93 119.94-10.1 116.89-10.1L116.89-10.1 102.69-10.1 102.69-13.4 115.79-13.4Q117.44-13.4 117.94-14.53 118.44-15.65 118.44-17L118.44-17Q118.39-19.35 117.04-20.35 115.69-21.35 112.44-21.35L112.44-21.35Q109.79-21.35 108.27-20.58 106.74-19.8 106.12-17.88 105.49-15.95 105.49-12.5L105.49-12.5Q105.49-8.6 106.27-6.55 107.04-4.5 108.74-3.75 110.44-3 113.24-3L113.24-3Q115.19-3 117.52-3.18 119.84-3.35 121.69-3.6L121.69-3.6 122.14-0.75Q120.99-0.3 119.31 0 117.64 0.3 115.87 0.45 114.09 0.6 112.69 0.6L112.69 0.6Q108.49 0.6 105.94-0.68 103.39-1.95 102.22-4.78 101.04-7.6 101.04-12.25L101.04-12.25Q101.04-17.05 102.22-19.83 103.39-22.6 105.87-23.78 108.34-24.95 112.24-24.95ZM130.94-31.55L135.19-31.55 135.19-6.7Q135.19-4.95 135.94-4.2 136.69-3.45 138.49-3.45L138.49-3.45 142.19-3.45 142.69-0.2Q141.89 0 140.84 0.15 139.79 0.3 138.79 0.38 137.79 0.45 137.19 0.45L137.19 0.45Q134.14 0.45 132.54-1.25 130.94-2.95 130.94-6.15L130.94-6.15 130.94-31.55ZM131.34-24.35L142.94-24.35 142.94-21 126.54-21 126.54-24.1 131.34-24.35Z" fill="#ffffff" data-fill-palette-color="primary"></path></g></svg></g><g><svg xmlns="http://www.w3.org/2000/svg" xmlns:xlink="http://www.w3.org/1999/xlink" version="1.1" x="242.86979999999997" y="0" viewBox="11.017823632605118 11.459999999999999 37.963698158539415 37.07000000000001" style="enable-background:new 0 0 60 60;" xml:space="preserve" height="57.6008" width="58.98946277017525" class="icon-cg-0" data-fill-palette-color="accent" id="cg-0"><path d="M48.85 34.1L35.82 11.92c-0.17-0.29-0.47-0.46-0.81-0.46s-0.64 0.18-0.81 0.46L30 19.08l-4.21-7.15c-0.17-0.29-0.47-0.46-0.81-0.46s-0.64 0.18-0.81 0.46L11.15 34.1c-0.22 0.37-0.16 0.83 0.14 1.13l13.03 13.03c0.18 0.18 0.42 0.27 0.66 0.27s0.48-0.09 0.66-0.27L30 43.91l4.35 4.35c0.18 0.18 0.42 0.27 0.66 0.27s0.48-0.09 0.66-0.27l13.03-13.03C49.01 34.93 49.07 34.46 48.85 34.1zM24.99 46.28L13.13 34.42l11.86-20.18 3.93 6.68L21.17 34.1c-0.22 0.37-0.16 0.83 0.14 1.13l7.36 7.36L24.99 46.28zM30 22.77l6.85 11.65L30 41.27l-6.85-6.85L30 22.77zM35.01 46.28l-3.69-3.69 7.36-7.36c0.3-0.3 0.36-0.77 0.14-1.13l-7.74-13.17 3.93-6.68 11.86 20.18L35.01 46.28z" fill="#ffffff" data-fill-palette-color="accent"></path></svg></g></svg></g></svg></g></svg></g></svg></g><g></g></svg></g><defs></defs></svg><rect width="301.85926277017523" height="57.6008" fill="none" stroke="none" visibility="hidden"></rect></g></svg></g></svg>