<svg width="24" height="24" viewBox="0 0 24 24" fill="none" xmlns="http://www.w3.org/2000/svg">
<path d="M12 2.25C10.0716 2.25 8.18657 2.82183 6.58319 3.89317C4.97982 4.96451 3.73013 6.48726 2.99218 8.26884C2.25422 10.0504 2.06114 12.0108 2.43735 13.9021C2.81355 15.7934 3.74215 17.5307 5.10571 18.8943C6.46928 20.2579 8.20656 21.1865 10.0979 21.5627C11.9892 21.9389 13.9496 21.7458 15.7312 21.0078C17.5127 20.2699 19.0355 19.0202 20.1068 17.4168C21.1782 15.8134 21.75 13.9284 21.75 12C21.7473 9.41498 20.7192 6.93661 18.8913 5.10872C17.0634 3.28084 14.585 2.25273 12 2.25ZM12 20.25C10.3683 20.25 8.77326 19.7661 7.41655 18.8596C6.05984 17.9531 5.00242 16.6646 4.378 15.1571C3.75358 13.6496 3.5902 11.9908 3.90853 10.3905C4.22685 8.79016 5.01259 7.32015 6.16637 6.16637C7.32016 5.01259 8.79017 4.22685 10.3905 3.90852C11.9909 3.59019 13.6497 3.75357 15.1571 4.37799C16.6646 5.00242 17.9531 6.05984 18.8596 7.41655C19.7661 8.77325 20.25 10.3683 20.25 12C20.2475 14.1873 19.3775 16.2843 17.8309 17.8309C16.2843 19.3775 14.1873 20.2475 12 20.25ZM16.5 12C16.5 12.1989 16.421 12.3897 16.2803 12.5303C16.1397 12.671 15.9489 12.75 15.75 12.75H10.0603L11.7806 14.4694C11.8503 14.5391 11.9056 14.6218 11.9433 14.7128C11.981 14.8039 12.0004 14.9015 12.0004 15C12.0004 15.0985 11.981 15.1961 11.9433 15.2872C11.9056 15.3782 11.8503 15.4609 11.7806 15.5306C11.7109 15.6003 11.6282 15.6556 11.5372 15.6933C11.4461 15.731 11.3486 15.7504 11.25 15.7504C11.1515 15.7504 11.0539 15.731 10.9628 15.6933C10.8718 15.6556 10.7891 15.6003 10.7194 15.5306L7.71938 12.5306C7.64965 12.461 7.59433 12.3783 7.55658 12.2872C7.51884 12.1962 7.49941 12.0986 7.49941 12C7.49941 11.9014 7.51884 11.8038 7.55658 11.7128C7.59433 11.6217 7.64965 11.539 7.71938 11.4694L10.7194 8.46937C10.8601 8.32864 11.051 8.24958 11.25 8.24958C11.449 8.24958 11.6399 8.32864 11.7806 8.46937C11.9214 8.61011 12.0004 8.80098 12.0004 9C12.0004 9.19902 11.9214 9.38989 11.7806 9.53063L10.0603 11.25H15.75C15.9489 11.25 16.1397 11.329 16.2803 11.4697C16.421 11.6103 16.5 11.8011 16.5 12Z" fill="#4F4F4F"/>
</svg>
