<svg width="25" height="25" viewBox="0 0 25 25" fill="none" xmlns="http://www.w3.org/2000/svg">
<path d="M12.5 2.75C10.5716 2.75 8.68657 3.32183 7.08319 4.39317C5.47982 5.46451 4.23013 6.98726 3.49218 8.76884C2.75422 10.5504 2.56114 12.5108 2.93735 14.4021C3.31355 16.2934 4.24215 18.0307 5.60571 19.3943C6.96928 20.7579 8.70656 21.6865 10.5979 22.0627C12.4892 22.4389 14.4496 22.2458 16.2312 21.5078C18.0127 20.7699 19.5355 19.5202 20.6068 17.9168C21.6782 16.3134 22.25 14.4284 22.25 12.5C22.2473 9.91498 21.2192 7.43661 19.3913 5.60872C17.5634 3.78084 15.085 2.75273 12.5 2.75ZM12.5 20.75C10.8683 20.75 9.27326 20.2661 7.91655 19.3596C6.55984 18.4531 5.50242 17.1646 4.878 15.6571C4.25358 14.1496 4.0902 12.4908 4.40853 10.8905C4.72685 9.29016 5.51259 7.82015 6.66637 6.66637C7.82016 5.51259 9.29017 4.72685 10.8905 4.40852C12.4909 4.09019 14.1497 4.25357 15.6571 4.87799C17.1646 5.50242 18.4531 6.55984 19.3596 7.91655C20.2661 9.27325 20.75 10.8683 20.75 12.5C20.7475 14.6873 19.8775 16.7843 18.3309 18.3309C16.7843 19.8775 14.6873 20.7475 12.5 20.75ZM16.7806 11.9694C16.8504 12.039 16.9057 12.1217 16.9434 12.2128C16.9812 12.3038 17.0006 12.4014 17.0006 12.5C17.0006 12.5986 16.9812 12.6962 16.9434 12.7872C16.9057 12.8783 16.8504 12.961 16.7806 13.0306L13.7806 16.0306C13.6399 16.1714 13.449 16.2504 13.25 16.2504C13.051 16.2504 12.8601 16.1714 12.7194 16.0306C12.5786 15.8899 12.4996 15.699 12.4996 15.5C12.4996 15.301 12.5786 15.1101 12.7194 14.9694L14.4397 13.25H8.75C8.55109 13.25 8.36033 13.171 8.21967 13.0303C8.07902 12.8897 8 12.6989 8 12.5C8 12.3011 8.07902 12.1103 8.21967 11.9697C8.36033 11.829 8.55109 11.75 8.75 11.75H14.4397L12.7194 10.0306C12.5786 9.88989 12.4996 9.69902 12.4996 9.5C12.4996 9.30098 12.5786 9.11011 12.7194 8.96937C12.8601 8.82864 13.051 8.74958 13.25 8.74958C13.449 8.74958 13.6399 8.82864 13.7806 8.96937L16.7806 11.9694Z" fill="#4F4F4F"/>
</svg>
