<svg width="24" height="24" viewBox="0 0 24 24" fill="none" xmlns="http://www.w3.org/2000/svg">
<path fill-rule="evenodd" clip-rule="evenodd" d="M20.1431 16.8862C20.0924 16.971 20.0255 17.0449 19.9461 17.1037C19.8668 17.1624 19.7767 17.205 19.6808 17.2289C19.585 17.2527 19.4854 17.2574 19.3878 17.2427C19.2902 17.228 19.1964 17.1942 19.1119 17.1431L12.75 13.3247V20.25C12.75 20.4489 12.671 20.6397 12.5303 20.7803C12.3897 20.921 12.1989 21 12 21C11.8011 21 11.6103 20.921 11.4697 20.7803C11.329 20.6397 11.25 20.4489 11.25 20.25V13.3247L4.88624 17.1431C4.80175 17.195 4.70781 17.2297 4.60985 17.245C4.51189 17.2604 4.41185 17.2562 4.31553 17.2326C4.2192 17.2091 4.12851 17.1667 4.04869 17.1078C3.96886 17.049 3.9015 16.9749 3.85049 16.8899C3.79948 16.8049 3.76584 16.7105 3.75152 16.6124C3.73719 16.5143 3.74247 16.4143 3.76704 16.3183C3.79161 16.2222 3.83498 16.1319 3.89466 16.0528C3.95433 15.9736 4.02911 15.907 4.11468 15.8569L10.5422 12L4.11468 8.14313C4.02911 8.09302 3.95433 8.02644 3.89466 7.94725C3.83498 7.86805 3.79161 7.77781 3.76704 7.68174C3.74247 7.58568 3.73719 7.48569 3.75152 7.38757C3.76584 7.28945 3.79948 7.19515 3.85049 7.11011C3.9015 7.02508 3.96886 6.951 4.04869 6.89217C4.12851 6.83334 4.2192 6.79092 4.31553 6.76737C4.41185 6.74382 4.51189 6.73961 4.60985 6.75497C4.70781 6.77033 4.80175 6.80497 4.88624 6.85687L11.25 10.6753V3.75C11.25 3.55109 11.329 3.36032 11.4697 3.21967C11.6103 3.07902 11.8011 3 12 3C12.1989 3 12.3897 3.07902 12.5303 3.21967C12.671 3.36032 12.75 3.55109 12.75 3.75V10.6753L19.1137 6.85687C19.1982 6.80497 19.2922 6.77033 19.3901 6.75497C19.4881 6.73961 19.5881 6.74382 19.6845 6.76737C19.7808 6.79092 19.8715 6.83334 19.9513 6.89217C20.0311 6.951 20.0985 7.02508 20.1495 7.11011C20.2005 7.19515 20.2341 7.28945 20.2485 7.38757C20.2628 7.48569 20.2575 7.58568 20.2329 7.68174C20.2084 7.77781 20.165 7.86805 20.1053 7.94725C20.0457 8.02644 19.9709 8.09302 19.8853 8.14313L13.4578 12L19.8853 15.8569C19.9699 15.9075 20.0436 15.9743 20.1023 16.0534C20.1611 16.1326 20.2036 16.2225 20.2275 16.3181C20.2515 16.4137 20.2564 16.5131 20.2419 16.6106C20.2274 16.7081 20.1938 16.8017 20.1431 16.8862Z" fill="#FFF"/>
</svg>
