<svg width="25" height="24" viewBox="0 0 25 24" fill="none" xmlns="http://www.w3.org/2000/svg">
<path d="M20.5306 9.53104L13.0306 17.031C12.961 17.1008 12.8782 17.1561 12.7872 17.1938C12.6961 17.2316 12.5986 17.251 12.5 17.251C12.4014 17.251 12.3038 17.2316 12.2128 17.1938C12.1217 17.1561 12.039 17.1008 11.9694 17.031L4.46936 9.53104C4.32863 9.39031 4.24957 9.19944 4.24957 9.00042C4.24957 8.80139 4.32863 8.61052 4.46936 8.46979C4.6101 8.32906 4.80097 8.25 4.99999 8.25C5.19901 8.25 5.38988 8.32906 5.53061 8.46979L12.5 15.4401L19.4694 8.46979C19.539 8.40011 19.6218 8.34483 19.7128 8.30712C19.8039 8.26941 19.9014 8.25 20 8.25C20.0985 8.25 20.1961 8.26941 20.2872 8.30712C20.3782 8.34483 20.4609 8.40011 20.5306 8.46979C20.6003 8.53947 20.6556 8.6222 20.6933 8.71324C20.731 8.80429 20.7504 8.90187 20.7504 9.00042C20.7504 9.09896 20.731 9.19654 20.6933 9.28759C20.6556 9.37863 20.6003 9.46136 20.5306 9.53104Z" fill="#4F4F4F"/>
</svg>
