<svg width="24" height="24" viewBox="0 0 24 24" fill="none" xmlns="http://www.w3.org/2000/svg">
<path d="M20.0306 15.5306C19.961 15.6004 19.8783 15.6557 19.7872 15.6934C19.6962 15.7312 19.5986 15.7506 19.5 15.7506C19.4014 15.7506 19.3038 15.7312 19.2128 15.6934C19.1218 15.6557 19.039 15.6004 18.9694 15.5306L12 8.56032L5.03063 15.5306C4.8899 15.6714 4.69903 15.7504 4.50001 15.7504C4.30098 15.7504 4.11011 15.6714 3.96938 15.5306C3.82865 15.3899 3.74959 15.199 3.74959 15C3.74959 14.801 3.82865 14.6101 3.96938 14.4694L11.4694 6.96938C11.539 6.89965 11.6218 6.84433 11.7128 6.80659C11.8038 6.76885 11.9014 6.74942 12 6.74942C12.0986 6.74942 12.1962 6.76885 12.2872 6.80659C12.3783 6.84433 12.461 6.89965 12.5306 6.96938L20.0306 14.4694C20.1004 14.539 20.1557 14.6218 20.1934 14.7128C20.2312 14.8039 20.2506 14.9014 20.2506 15C20.2506 15.0986 20.2312 15.1962 20.1934 15.2872C20.1557 15.3783 20.1004 15.461 20.0306 15.5306Z" fill="#4F4F4F"/>
</svg>
