<svg width="24" height="25" viewBox="0 0 24 25" fill="none" xmlns="http://www.w3.org/2000/svg">
<path d="M13.125 12.2499C13.125 12.4724 13.059 12.6899 12.9354 12.8749C12.8118 13.0599 12.6361 13.2041 12.4305 13.2893C12.225 13.3744 11.9988 13.3967 11.7805 13.3533C11.5623 13.3099 11.3618 13.2027 11.2045 13.0454C11.0472 12.8881 10.94 12.6876 10.8966 12.4694C10.8532 12.2512 10.8755 12.025 10.9606 11.8194C11.0458 11.6138 11.19 11.4381 11.375 11.3145C11.56 11.1909 11.7775 11.1249 12 11.1249C12.2984 11.1249 12.5845 11.2434 12.7955 11.4544C13.0065 11.6654 13.125 11.9515 13.125 12.2499ZM7.875 11.1249C7.6525 11.1249 7.43499 11.1909 7.24998 11.3145C7.06498 11.4381 6.92078 11.6138 6.83564 11.8194C6.75049 12.025 6.72821 12.2512 6.77162 12.4694C6.81502 12.6876 6.92217 12.8881 7.0795 13.0454C7.23684 13.2027 7.43729 13.3099 7.65552 13.3533C7.87375 13.3967 8.09995 13.3744 8.30552 13.2893C8.51109 13.2041 8.68679 13.0599 8.8104 12.8749C8.93402 12.6899 9 12.4724 9 12.2499C9 11.9515 8.88147 11.6654 8.6705 11.4544C8.45952 11.2434 8.17337 11.1249 7.875 11.1249ZM16.125 11.1249C15.9025 11.1249 15.685 11.1909 15.5 11.3145C15.315 11.4381 15.1708 11.6138 15.0856 11.8194C15.0005 12.025 14.9782 12.2512 15.0216 12.4694C15.065 12.6876 15.1722 12.8881 15.3295 13.0454C15.4868 13.2027 15.6873 13.3099 15.9055 13.3533C16.1238 13.3967 16.35 13.3744 16.5555 13.2893C16.7611 13.2041 16.9368 13.0599 17.0604 12.8749C17.184 12.6899 17.25 12.4724 17.25 12.2499C17.25 11.9515 17.1315 11.6654 16.9205 11.4544C16.7095 11.2434 16.4234 11.1249 16.125 11.1249ZM21.75 12.2499C21.7504 13.9332 21.3149 15.588 20.486 17.053C19.6572 18.5181 18.4631 19.7437 17.02 20.6104C15.577 21.4771 13.9341 21.9554 12.2514 21.9988C10.5686 22.0422 8.9033 21.6492 7.4175 20.858L4.22531 21.9221C3.96102 22.0102 3.6774 22.023 3.40624 21.959C3.13509 21.895 2.88711 21.7568 2.69011 21.5598C2.49311 21.3628 2.35486 21.1148 2.29087 20.8437C2.22688 20.5725 2.23967 20.2889 2.32781 20.0246L3.39187 16.8324C2.69639 15.5248 2.30793 14.076 2.256 12.5958C2.20406 11.1157 2.49001 9.64316 3.09213 8.29003C3.69425 6.9369 4.59672 5.73873 5.73105 4.78646C6.86537 3.83419 8.20173 3.15285 9.63869 2.79416C11.0756 2.43548 12.5754 2.40886 14.0242 2.71635C15.473 3.02383 16.8327 3.65733 18.0001 4.56875C19.1675 5.48018 20.1119 6.64558 20.7616 7.9765C21.4114 9.30741 21.7494 10.7689 21.75 12.2499ZM20.25 12.2499C20.2496 10.9844 19.9582 9.73593 19.3981 8.6011C18.838 7.46627 18.0244 6.4755 17.0201 5.70544C16.0159 4.93537 14.8479 4.40666 13.6067 4.16021C12.3654 3.91375 11.084 3.95616 9.86178 4.28415C8.63951 4.61215 7.50909 5.21693 6.55796 6.05171C5.60682 6.8865 4.86049 7.9289 4.37668 9.09828C3.89288 10.2677 3.68458 11.5327 3.7679 12.7954C3.85122 14.0582 4.22393 15.2849 4.85719 16.3805C4.91034 16.4725 4.94334 16.5747 4.954 16.6804C4.96467 16.7861 4.95276 16.8929 4.91906 16.9937L3.75 20.4999L7.25625 19.3308C7.33262 19.3048 7.41275 19.2915 7.49344 19.2915C7.62516 19.2917 7.7545 19.3266 7.86844 19.3927C9.12263 20.1184 10.5458 20.5009 11.9948 20.5018C13.4438 20.5027 14.8674 20.122 16.1225 19.3979C17.3776 18.6739 18.4199 17.632 19.1445 16.3772C19.869 15.1224 20.2503 13.6989 20.25 12.2499Z" fill="#4F4F4F"/>
</svg>
