<svg width="170" height="171" viewBox="0 0 170 171" fill="none" xmlns="http://www.w3.org/2000/svg">
<path d="M115.321 65.8039C115.815 66.2973 116.207 66.8832 116.474 67.5281C116.742 68.1731 116.879 68.8644 116.879 69.5625C116.879 70.2606 116.742 70.9519 116.474 71.5969C116.207 72.2418 115.815 72.8277 115.321 73.3211L78.1336 110.509C77.6402 111.003 77.0543 111.394 76.4094 111.662C75.7645 111.929 75.0732 112.067 74.375 112.067C73.6769 112.067 72.9856 111.929 72.3407 111.662C71.6957 111.394 71.1098 111.003 70.6164 110.509L54.6789 94.5711C53.6821 93.5743 53.1221 92.2222 53.1221 90.8125C53.1221 89.4028 53.6821 88.0507 54.6789 87.0539C55.6758 86.0571 57.0278 85.497 58.4375 85.497C59.8473 85.497 61.1993 86.0571 62.1961 87.0539L74.375 99.2395L107.804 65.8039C108.297 65.31 108.883 64.9181 109.528 64.6508C110.173 64.3834 110.864 64.2458 111.563 64.2458C112.261 64.2458 112.952 64.3834 113.597 64.6508C114.242 64.9181 114.828 65.31 115.321 65.8039ZM154.063 85.5C154.063 99.1593 150.012 112.512 142.423 123.869C134.835 135.226 124.049 144.078 111.429 149.305C98.8096 154.533 84.9234 155.9 71.5266 153.235C58.1298 150.571 45.824 143.993 36.1655 134.335C26.5069 124.676 19.9293 112.37 17.2645 98.9734C14.5998 85.5766 15.9674 71.6904 21.1946 59.0709C26.4218 46.4514 35.2737 35.6653 46.631 28.0766C57.9882 20.4879 71.3408 16.4375 85 16.4375C103.311 16.4568 120.866 23.7393 133.813 36.6868C146.761 49.6343 154.043 67.1894 154.063 85.5ZM143.438 85.5C143.438 73.9422 140.01 62.6439 133.589 53.0339C127.168 43.4239 118.041 35.9338 107.363 31.5108C96.685 27.0878 84.9352 25.9305 73.5994 28.1854C62.2637 30.4402 51.8511 36.0058 43.6785 44.1784C35.5058 52.3511 29.9402 62.7636 27.6854 74.0994C25.4306 85.4352 26.5878 97.185 31.0108 107.863C35.4338 118.541 42.9239 127.668 52.5339 134.089C62.1439 140.51 73.4422 143.938 85 143.938C100.493 143.92 115.347 137.757 126.302 126.802C137.258 115.847 143.42 100.993 143.438 85.5Z" fill="#008000"/>
</svg>
