<svg width="24" height="24" viewBox="0 0 24 24" fill="none" xmlns="http://www.w3.org/2000/svg">
<path d="M15.75 14.2499C15.75 14.4488 15.671 14.6395 15.5303 14.7802C15.3897 14.9208 15.1989 14.9999 15 14.9999H9C8.80109 14.9999 8.61032 14.9208 8.46967 14.7802C8.32902 14.6395 8.25 14.4488 8.25 14.2499C8.25 14.051 8.32902 13.8602 8.46967 13.7195C8.61032 13.5789 8.80109 13.4999 9 13.4999H15C15.1989 13.4999 15.3897 13.5789 15.5303 13.7195C15.671 13.8602 15.75 14.051 15.75 14.2499ZM15 10.4999H9C8.80109 10.4999 8.61032 10.5789 8.46967 10.7195C8.32902 10.8602 8.25 11.051 8.25 11.2499C8.25 11.4488 8.32902 11.6395 8.46967 11.7802C8.61032 11.9208 8.80109 11.9999 9 11.9999H15C15.1989 11.9999 15.3897 11.9208 15.5303 11.7802C15.671 11.6395 15.75 11.4488 15.75 11.2499C15.75 11.051 15.671 10.8602 15.5303 10.7195C15.3897 10.5789 15.1989 10.4999 15 10.4999ZM20.25 4.49986V20.2499C20.25 20.6477 20.092 21.0292 19.8107 21.3105C19.5294 21.5918 19.1478 21.7499 18.75 21.7499H5.25C4.85218 21.7499 4.47064 21.5918 4.18934 21.3105C3.90804 21.0292 3.75 20.6477 3.75 20.2499V4.49986C3.75 4.10204 3.90804 3.72051 4.18934 3.4392C4.47064 3.1579 4.85218 2.99986 5.25 2.99986H8.64937C9.07079 2.52804 9.58709 2.15054 10.1645 1.89207C10.7419 1.63361 11.3674 1.5 12 1.5C12.6326 1.5 13.2581 1.63361 13.8355 1.89207C14.4129 2.15054 14.9292 2.52804 15.3506 2.99986H18.75C19.1478 2.99986 19.5294 3.1579 19.8107 3.4392C20.092 3.72051 20.25 4.10204 20.25 4.49986ZM9 5.99986H15C15 5.20421 14.6839 4.44115 14.1213 3.87854C13.5587 3.31593 12.7956 2.99986 12 2.99986C11.2044 2.99986 10.4413 3.31593 9.87868 3.87854C9.31607 4.44115 9 5.20421 9 5.99986ZM18.75 4.49986H16.2422C16.4128 4.98157 16.5 5.48884 16.5 5.99986V6.74986C16.5 6.94878 16.421 7.13954 16.2803 7.28019C16.1397 7.42085 15.9489 7.49986 15.75 7.49986H8.25C8.05109 7.49986 7.86032 7.42085 7.71967 7.28019C7.57902 7.13954 7.5 6.94878 7.5 6.74986V5.99986C7.50002 5.48884 7.58721 4.98157 7.75781 4.49986H5.25V20.2499H18.75V4.49986Z" fill="#4F4F4F"/>
</svg>
