<svg width="74" height="74" viewBox="0 0 74 74" fill="none" xmlns="http://www.w3.org/2000/svg">
<rect x="25" y="25" width="24" height="24" rx="12" fill="#FAFAFA"/>
<g opacity="0.9" filter="url(#filter0_b_1594_2765)">
<rect width="74" height="74" rx="37" fill="#59D3D4" fill-opacity="0.03"/>
</g>
<g opacity="0.9" filter="url(#filter1_b_1594_2765)">
<rect x="7" y="7" width="60" height="60" rx="30" fill="#59D3D4" fill-opacity="0.03"/>
</g>
<g opacity="0.9" filter="url(#filter2_b_1594_2765)">
<rect x="15" y="15" width="44" height="44" rx="22" fill="#59D3D4" fill-opacity="0.03"/>
</g>
<g filter="url(#filter3_b_1594_2765)">
<rect x="22" y="22" width="30" height="30" rx="15" fill="#59D3D4" fill-opacity="0.1"/>
</g>
<path d="M37 27.25C35.0716 27.25 33.1866 27.8218 31.5832 28.8932C29.9798 29.9645 28.7301 31.4873 27.9922 33.2688C27.2542 35.0504 27.0611 37.0108 27.4373 38.9021C27.8136 40.7934 28.7422 42.5307 30.1057 43.8943C31.4693 45.2579 33.2066 46.1865 35.0979 46.5627C36.9892 46.9389 38.9496 46.7458 40.7312 46.0078C42.5127 45.2699 44.0355 44.0202 45.1068 42.4168C46.1782 40.8134 46.75 38.9284 46.75 37C46.7473 34.415 45.7192 31.9366 43.8913 30.1087C42.0634 28.2808 39.585 27.2527 37 27.25ZM42.25 37.75H37C36.8011 37.75 36.6103 37.671 36.4697 37.5303C36.329 37.3897 36.25 37.1989 36.25 37V31.75C36.25 31.5511 36.329 31.3603 36.4697 31.2197C36.6103 31.079 36.8011 31 37 31C37.1989 31 37.3897 31.079 37.5303 31.2197C37.671 31.3603 37.75 31.5511 37.75 31.75V36.25H42.25C42.4489 36.25 42.6397 36.329 42.7803 36.4697C42.921 36.6103 43 36.8011 43 37C43 37.1989 42.921 37.3897 42.7803 37.5303C42.6397 37.671 42.4489 37.75 42.25 37.75Z" fill="#59D3D4"/>
<defs>
<filter id="filter0_b_1594_2765" x="-20" y="-20" width="114" height="114" filterUnits="userSpaceOnUse" color-interpolation-filters="sRGB">
<feFlood flood-opacity="0" result="BackgroundImageFix"/>
<feGaussianBlur in="BackgroundImageFix" stdDeviation="10"/>
<feComposite in2="SourceAlpha" operator="in" result="effect1_backgroundBlur_1594_2765"/>
<feBlend mode="normal" in="SourceGraphic" in2="effect1_backgroundBlur_1594_2765" result="shape"/>
</filter>
<filter id="filter1_b_1594_2765" x="-13" y="-13" width="100" height="100" filterUnits="userSpaceOnUse" color-interpolation-filters="sRGB">
<feFlood flood-opacity="0" result="BackgroundImageFix"/>
<feGaussianBlur in="BackgroundImageFix" stdDeviation="10"/>
<feComposite in2="SourceAlpha" operator="in" result="effect1_backgroundBlur_1594_2765"/>
<feBlend mode="normal" in="SourceGraphic" in2="effect1_backgroundBlur_1594_2765" result="shape"/>
</filter>
<filter id="filter2_b_1594_2765" x="-5" y="-5" width="84" height="84" filterUnits="userSpaceOnUse" color-interpolation-filters="sRGB">
<feFlood flood-opacity="0" result="BackgroundImageFix"/>
<feGaussianBlur in="BackgroundImageFix" stdDeviation="10"/>
<feComposite in2="SourceAlpha" operator="in" result="effect1_backgroundBlur_1594_2765"/>
<feBlend mode="normal" in="SourceGraphic" in2="effect1_backgroundBlur_1594_2765" result="shape"/>
</filter>
<filter id="filter3_b_1594_2765" x="2" y="2" width="70" height="70" filterUnits="userSpaceOnUse" color-interpolation-filters="sRGB">
<feFlood flood-opacity="0" result="BackgroundImageFix"/>
<feGaussianBlur in="BackgroundImageFix" stdDeviation="10"/>
<feComposite in2="SourceAlpha" operator="in" result="effect1_backgroundBlur_1594_2765"/>
<feBlend mode="normal" in="SourceGraphic" in2="effect1_backgroundBlur_1594_2765" result="shape"/>
</filter>
</defs>
</svg>
