<svg width="25" height="24" viewBox="0 0 25 24" fill="none" xmlns="http://www.w3.org/2000/svg">
<path fill-rule="evenodd" clip-rule="evenodd" d="M5.42893 4.92893C7.3043 3.05357 9.84784 2 12.5 2C15.1522 2 17.6957 3.05357 19.5711 4.92893C21.4464 6.8043 22.5 9.34784 22.5 12C22.5 13.3132 22.2413 14.6136 21.7388 15.8268C21.2362 17.0401 20.4997 18.1425 19.5711 19.0711C18.6425 19.9997 17.5401 20.7362 16.3268 21.2388C15.1136 21.7413 13.8132 22 12.5 22C11.1868 22 9.88642 21.7413 8.67317 21.2388C7.45991 20.7362 6.35752 19.9997 5.42893 19.0711C4.50035 18.1425 3.76375 17.0401 3.2612 15.8268C2.75866 14.6136 2.5 13.3132 2.5 12C2.5 9.34784 3.55357 6.8043 5.42893 4.92893ZM12.5 4C10.3783 4 8.34344 4.84285 6.84315 6.34315C5.34285 7.84344 4.5 9.87827 4.5 12C4.5 13.0506 4.70693 14.0909 5.10896 15.0615C5.511 16.0321 6.10028 16.914 6.84315 17.6569C7.58601 18.3997 8.46793 18.989 9.43853 19.391C10.4091 19.7931 11.4494 20 12.5 20C13.5506 20 14.5909 19.7931 15.5615 19.391C16.5321 18.989 17.414 18.3997 18.1569 17.6569C18.8997 16.914 19.489 16.0321 19.891 15.0615C20.2931 14.0909 20.5 13.0506 20.5 12C20.5 9.87827 19.6571 7.84344 18.1569 6.34315C16.6566 4.84285 14.6217 4 12.5 4Z" fill="#4F4F4F"/>
<path fill-rule="evenodd" clip-rule="evenodd" d="M12.5 6C13.0523 6 13.5 6.44772 13.5 7V11.5858L16.2071 14.2929C16.5976 14.6834 16.5976 15.3166 16.2071 15.7071C15.8166 16.0976 15.1834 16.0976 14.7929 15.7071L11.7929 12.7071C11.6054 12.5196 11.5 12.2652 11.5 12V7C11.5 6.44772 11.9477 6 12.5 6Z" fill="#4F4F4F"/>
</svg>
