<svg width="24" height="24" viewBox="0 0 24 24" fill="none" xmlns="http://www.w3.org/2000/svg">
<path d="M8.25 9C7.65666 9 7.07664 9.17595 6.58329 9.50559C6.08994 9.83524 5.70542 10.3038 5.47836 10.8519C5.2513 11.4001 5.19189 12.0033 5.30764 12.5853C5.4234 13.1672 5.70912 13.7018 6.12868 14.1213C6.54824 14.5409 7.08279 14.8266 7.66473 14.9424C8.24667 15.0581 8.84987 14.9987 9.39805 14.7716C9.94623 14.5446 10.4148 14.1601 10.7444 13.6667C11.0741 13.1734 11.25 12.5933 11.25 12C11.25 11.2044 10.9339 10.4413 10.3713 9.87868C9.80871 9.31607 9.04565 9 8.25 9ZM8.25 13.5C7.95333 13.5 7.66332 13.412 7.41665 13.2472C7.16997 13.0824 6.97771 12.8481 6.86418 12.574C6.75065 12.2999 6.72094 11.9983 6.77882 11.7074C6.8367 11.4164 6.97956 11.1491 7.18934 10.9393C7.39912 10.7296 7.66639 10.5867 7.95736 10.5288C8.24834 10.4709 8.54994 10.5006 8.82403 10.6142C9.09811 10.7277 9.33238 10.92 9.4972 11.1666C9.66203 11.4133 9.75 11.7033 9.75 12C9.75 12.3978 9.59196 12.7794 9.31066 13.0607C9.02936 13.342 8.64782 13.5 8.25 13.5ZM20.25 9.75H19.5V4.5C19.5 4.10218 19.342 3.72064 19.0607 3.43934C18.7794 3.15804 18.3978 3 18 3H10.5C10.1022 3 9.72064 3.15804 9.43934 3.43934C9.15804 3.72064 9 4.10218 9 4.5V6H3.75C3.35218 6 2.97064 6.15804 2.68934 6.43934C2.40804 6.72064 2.25 7.10218 2.25 7.5V16.5C2.25 16.8978 2.40804 17.2794 2.68934 17.5607C2.97064 17.842 3.35218 18 3.75 18H6.75V19.5C6.75 19.8978 6.90804 20.2794 7.18934 20.5607C7.47064 20.842 7.85218 21 8.25 21H20.25C20.6478 21 21.0294 20.842 21.3107 20.5607C21.592 20.2794 21.75 19.8978 21.75 19.5V11.25C21.75 10.8522 21.592 10.4706 21.3107 10.1893C21.0294 9.90804 20.6478 9.75 20.25 9.75ZM10.5 4.5H18V11.7413L14.25 14.4497V7.5C14.25 7.10218 14.092 6.72064 13.8107 6.43934C13.5294 6.15804 13.1478 6 12.75 6H10.5V4.5ZM3.75 16.5V7.5H12.75V16.5H3.75ZM8.25 19.5V18H12.75C13.1478 18 13.5294 17.842 13.8107 17.5607C14.092 17.2794 14.25 16.8978 14.25 16.5V16.3003L18.6806 19.5H8.25ZM20.25 18.7828L15.5306 15.375L20.25 11.9672V18.7828Z" fill="#4F4F4F"/>
</svg>
