<svg width="24" height="25" viewBox="0 0 24 25" fill="none" xmlns="http://www.w3.org/2000/svg">
<path d="M21.4163 8.62562L12.4163 2.62562C12.293 2.54339 12.1482 2.49951 12 2.49951C11.8518 2.49951 11.707 2.54339 11.5837 2.62562L2.58375 8.62562C2.48101 8.69417 2.39679 8.78703 2.33857 8.89595C2.28034 9.00488 2.24992 9.12649 2.25 9.25V19C2.25 19.3978 2.40804 19.7794 2.68934 20.0607C2.97064 20.342 3.35218 20.5 3.75 20.5H20.25C20.6478 20.5 21.0294 20.342 21.3107 20.0607C21.592 19.7794 21.75 19.3978 21.75 19V9.25C21.7501 9.12649 21.7197 9.00488 21.6614 8.89595C21.6032 8.78703 21.519 8.69417 21.4163 8.62562ZM9.0675 14.5L3.75 18.25V10.7059L9.0675 14.5ZM10.6022 15.25H13.3978L18.7069 19H5.29312L10.6022 15.25ZM14.9325 14.5L20.25 10.7059V18.25L14.9325 14.5ZM12 4.15094L19.6791 9.27062L13.3978 13.75H10.6041L4.32281 9.27062L12 4.15094Z" fill="#4F4F4F"/>
</svg>
