<svg width="155" height="155" viewBox="0 0 155 155" fill="none" xmlns="http://www.w3.org/2000/svg">
<path d="M72.5 2.88675C75.594 1.10042 79.406 1.10042 82.5 2.88675L139.617 35.8632C142.711 37.6496 144.617 40.9508 144.617 44.5235V110.476C144.617 114.049 142.711 117.35 139.617 119.137L82.5 152.113C79.406 153.9 75.594 153.9 72.5 152.113L15.383 119.137C12.289 117.35 10.383 114.049 10.383 110.476V44.5235C10.383 40.9508 12.289 37.6496 15.383 35.8632L72.5 2.88675Z" fill="#F7F7F7"/>
<rect x="42" y="44" width="10" height="66" rx="2" fill="#59D3D4"/>
<rect x="57" y="82" width="10" height="28" rx="2" fill="#59D3D4"/>
<rect x="72" y="58" width="10" height="52" rx="2" fill="#59D3D4"/>
<rect x="87" y="64" width="10" height="46" rx="2" fill="#59D3D4"/>
<rect x="102" y="91" width="10" height="19" rx="2" fill="#59D3D4"/>
</svg>
