<svg width="25" height="24" viewBox="0 0 25 24" fill="none" xmlns="http://www.w3.org/2000/svg">
<g clip-path="url(#clip0_1431_7550)">
<path d="M22.0934 13.2244C21.8144 13.0096 21.4895 12.8622 21.1442 12.7934C20.7988 12.7246 20.4422 12.7364 20.1022 12.8278L16.1797 13.7297C16.2709 13.3442 16.2738 12.943 16.1879 12.5563C16.1021 12.1695 15.9298 11.8072 15.6841 11.4965C15.4383 11.1858 15.1254 10.9347 14.7688 10.7622C14.4122 10.5896 14.0212 10.5 13.625 10.5H8.93188C8.53775 10.499 8.14733 10.5761 7.78319 10.7269C7.41904 10.8777 7.08838 11.0991 6.81031 11.3784L4.68969 13.5H2C1.60218 13.5 1.22064 13.658 0.93934 13.9393C0.658035 14.2206 0.5 14.6022 0.5 15L0.5 18.75C0.5 19.1478 0.658035 19.5294 0.93934 19.8107C1.22064 20.092 1.60218 20.25 2 20.25H11.75C11.8113 20.25 11.8724 20.2425 11.9319 20.2275L17.9319 18.7275C17.9701 18.7184 18.0075 18.7058 18.0434 18.69L21.6875 17.1394L21.7288 17.1206C22.079 16.9456 22.3789 16.6843 22.6002 16.3614C22.8215 16.0385 22.957 15.6645 22.9939 15.2747C23.0307 14.8849 22.9678 14.4922 22.8109 14.1335C22.654 13.7748 22.4084 13.4619 22.0972 13.2244H22.0934ZM2 15H4.25V18.75H2V15ZM21.0716 15.7697L17.5091 17.2866L11.6563 18.75H5.75V14.5603L7.87156 12.4397C8.01035 12.2998 8.17555 12.1889 8.35758 12.1134C8.53961 12.0379 8.73482 11.9994 8.93188 12H13.625C13.9234 12 14.2095 12.1185 14.4205 12.3295C14.6315 12.5405 14.75 12.8266 14.75 13.125C14.75 13.4234 14.6315 13.7095 14.4205 13.9205C14.2095 14.1315 13.9234 14.25 13.625 14.25H11C10.8011 14.25 10.6103 14.329 10.4697 14.4697C10.329 14.6103 10.25 14.8011 10.25 15C10.25 15.1989 10.329 15.3897 10.4697 15.5303C10.6103 15.671 10.8011 15.75 11 15.75H14C14.0565 15.7498 14.1127 15.7436 14.1678 15.7313L20.4491 14.2866L20.4781 14.2791C20.6699 14.2258 20.8745 14.2454 21.0527 14.334C21.2309 14.4226 21.37 14.5739 21.4434 14.7589C21.5167 14.9439 21.5189 15.1495 21.4498 15.3361C21.3806 15.5227 21.2449 15.6771 21.0688 15.7697H21.0716ZM15.875 9C16.0603 9.00021 16.2453 8.98516 16.4281 8.955C16.6338 9.56582 17.01 10.105 17.5124 10.5088C18.0147 10.9125 18.6222 11.164 19.263 11.2335C19.9037 11.3029 20.551 11.1875 21.1282 10.9008C21.7054 10.614 22.1884 10.168 22.5202 9.61547C22.852 9.06291 23.0186 8.42691 23.0004 7.78266C22.9821 7.1384 22.7798 6.51284 22.4173 5.97993C22.0548 5.44703 21.5473 5.02905 20.9548 4.77543C20.3623 4.52181 19.7096 4.44315 19.0738 4.54875C18.8757 3.96023 18.5192 3.43775 18.0434 3.03879C17.5676 2.63984 16.9909 2.37988 16.3769 2.28754C15.7629 2.19519 15.1353 2.27403 14.5631 2.51537C13.991 2.75672 13.4966 3.15123 13.1342 3.65547C12.7719 4.15971 12.5556 4.75414 12.5093 5.37335C12.463 5.99256 12.5885 6.61254 12.8718 7.16506C13.1552 7.71759 13.5854 8.18123 14.1153 8.50497C14.6452 8.82872 15.2541 9.00001 15.875 9ZM21.5 7.875C21.5 8.24584 21.39 8.60835 21.184 8.9167C20.978 9.22504 20.6851 9.46536 20.3425 9.60728C19.9999 9.74919 19.6229 9.78632 19.2592 9.71397C18.8955 9.64163 18.5614 9.46305 18.2992 9.20083C18.037 8.9386 17.8584 8.60451 17.786 8.2408C17.7137 7.87708 17.7508 7.50008 17.8927 7.15747C18.0346 6.81486 18.275 6.52202 18.5833 6.316C18.8916 6.10997 19.2542 6 19.625 6C20.1223 6 20.5992 6.19755 20.9508 6.54918C21.3025 6.90081 21.5 7.37772 21.5 7.875ZM15.875 3.75C16.284 3.75021 16.6818 3.88416 17.0076 4.13145C17.3334 4.37874 17.5695 4.72579 17.6797 5.11969C17.2956 5.38997 16.9721 5.73744 16.7299 6.13989C16.4878 6.54234 16.3323 6.9909 16.2734 7.45688C16.1425 7.48515 16.009 7.49961 15.875 7.5C15.3777 7.5 14.9008 7.30246 14.5492 6.95083C14.1975 6.5992 14 6.12228 14 5.625C14 5.12772 14.1975 4.65081 14.5492 4.29918C14.9008 3.94755 15.3777 3.75 15.875 3.75Z" fill="black"/>
</g>
<defs>
<clipPath id="clip0_1431_7550">
<rect width="24" height="24" fill="white" transform="translate(0.5)"/>
</clipPath>
</defs>
</svg>
