<svg width="25" height="24" viewBox="0 0 25 24" fill="none" xmlns="http://www.w3.org/2000/svg">
<path d="M21.0153 9.7288L13.5153 2.65255C13.5116 2.64935 13.5082 2.6459 13.505 2.64223C13.2289 2.39111 12.869 2.25195 12.4958 2.25195C12.1225 2.25195 11.7627 2.39111 11.4866 2.64223L11.4763 2.65255L3.98469 9.7288C3.83187 9.86932 3.70989 10.04 3.62646 10.2301C3.54303 10.4202 3.49997 10.6256 3.5 10.8332V19.5004C3.5 19.8982 3.65804 20.2797 3.93934 20.561C4.22064 20.8423 4.60218 21.0004 5 21.0004H9.5C9.89782 21.0004 10.2794 20.8423 10.5607 20.561C10.842 20.2797 11 19.8982 11 19.5004V15.0004H14V19.5004C14 19.8982 14.158 20.2797 14.4393 20.561C14.7206 20.8423 15.1022 21.0004 15.5 21.0004H20C20.3978 21.0004 20.7794 20.8423 21.0607 20.561C21.342 20.2797 21.5 19.8982 21.5 19.5004V10.8332C21.5 10.6256 21.457 10.4202 21.3735 10.2301C21.2901 10.04 21.1681 9.86932 21.0153 9.7288ZM20 19.5004H15.5V15.0004C15.5 14.6025 15.342 14.221 15.0607 13.9397C14.7794 13.6584 14.3978 13.5004 14 13.5004H11C10.6022 13.5004 10.2206 13.6584 9.93934 13.9397C9.65804 14.221 9.5 14.6025 9.5 15.0004V19.5004H5V10.8332L5.01031 10.8238L12.5 3.75036L19.9906 10.8219L20.0009 10.8313L20 19.5004Z" fill="black"/>
</svg>
