<svg width="24" height="25" viewBox="0 0 24 25" fill="none" xmlns="http://www.w3.org/2000/svg">
<path d="M12 6.25C11.2583 6.25 10.5333 6.46993 9.91661 6.88199C9.29993 7.29404 8.81928 7.87971 8.53545 8.56494C8.25162 9.25016 8.17736 10.0042 8.32205 10.7316C8.46675 11.459 8.8239 12.1272 9.34835 12.6517C9.8728 13.1761 10.541 13.5333 11.2684 13.6779C11.9958 13.8226 12.7498 13.7484 13.4351 13.4645C14.1203 13.1807 14.706 12.7001 15.118 12.0834C15.5301 11.4667 15.75 10.7417 15.75 10C15.75 9.00544 15.3549 8.05161 14.6517 7.34835C13.9484 6.64509 12.9946 6.25 12 6.25ZM12 12.25C11.555 12.25 11.12 12.118 10.75 11.8708C10.38 11.6236 10.0916 11.2722 9.92127 10.861C9.75097 10.4499 9.70642 9.9975 9.79323 9.56105C9.88005 9.12459 10.0943 8.72368 10.409 8.40901C10.7237 8.09434 11.1246 7.88005 11.561 7.79323C11.9975 7.70642 12.4499 7.75097 12.861 7.92127C13.2722 8.09157 13.6236 8.37996 13.8708 8.74997C14.118 9.11998 14.25 9.55499 14.25 10C14.25 10.5967 14.0129 11.169 13.591 11.591C13.169 12.0129 12.5967 12.25 12 12.25ZM12 1.75C9.81273 1.75248 7.71575 2.62247 6.16911 4.16911C4.62247 5.71575 3.75248 7.81273 3.75 10C3.75 12.9438 5.11031 16.0638 7.6875 19.0234C8.84552 20.3608 10.1489 21.5651 11.5734 22.6141C11.6995 22.7024 11.8498 22.7498 12.0037 22.7498C12.1577 22.7498 12.308 22.7024 12.4341 22.6141C13.856 21.5647 15.1568 20.3604 16.3125 19.0234C18.8859 16.0638 20.25 12.9438 20.25 10C20.2475 7.81273 19.3775 5.71575 17.8309 4.16911C16.2843 2.62247 14.1873 1.75248 12 1.75ZM12 21.0625C10.4503 19.8438 5.25 15.3672 5.25 10C5.25 8.20979 5.96116 6.4929 7.22703 5.22703C8.4929 3.96116 10.2098 3.25 12 3.25C13.7902 3.25 15.5071 3.96116 16.773 5.22703C18.0388 6.4929 18.75 8.20979 18.75 10C18.75 15.3653 13.5497 19.8438 12 21.0625Z" fill="#4F4F4F"/>
</svg>
