<svg width="25" height="25" viewBox="0 0 25 25" fill="none" xmlns="http://www.w3.org/2000/svg">
<path d="M13.625 17.125C13.625 17.3475 13.559 17.565 13.4354 17.75C13.3118 17.935 13.1361 18.0792 12.9305 18.1644C12.725 18.2495 12.4988 18.2718 12.2805 18.2284C12.0623 18.185 11.8618 18.0778 11.7045 17.9205C11.5472 17.7632 11.44 17.5627 11.3966 17.3445C11.3532 17.1262 11.3755 16.9 11.4606 16.6945C11.5458 16.4889 11.69 16.3132 11.875 16.1896C12.06 16.066 12.2775 16 12.5 16C12.7984 16 13.0845 16.1185 13.2955 16.3295C13.5065 16.5405 13.625 16.8266 13.625 17.125ZM12.5 7C10.4319 7 8.75 8.51406 8.75 10.375V10.75C8.75 10.9489 8.82902 11.1397 8.96967 11.2803C9.11033 11.421 9.30109 11.5 9.5 11.5C9.69892 11.5 9.88968 11.421 10.0303 11.2803C10.171 11.1397 10.25 10.9489 10.25 10.75V10.375C10.25 9.34375 11.2597 8.5 12.5 8.5C13.7403 8.5 14.75 9.34375 14.75 10.375C14.75 11.4062 13.7403 12.25 12.5 12.25C12.3011 12.25 12.1103 12.329 11.9697 12.4697C11.829 12.6103 11.75 12.8011 11.75 13V13.75C11.75 13.9489 11.829 14.1397 11.9697 14.2803C12.1103 14.421 12.3011 14.5 12.5 14.5C12.6989 14.5 12.8897 14.421 13.0303 14.2803C13.171 14.1397 13.25 13.9489 13.25 13.75V13.6825C14.96 13.3684 16.25 12.0044 16.25 10.375C16.25 8.51406 14.5681 7 12.5 7ZM22.25 12.25C22.25 14.1784 21.6782 16.0634 20.6068 17.6668C19.5355 19.2702 18.0127 20.5199 16.2312 21.2578C14.4496 21.9958 12.4892 22.1889 10.5979 21.8127C8.70656 21.4365 6.96928 20.5079 5.60571 19.1443C4.24215 17.7807 3.31355 16.0434 2.93735 14.1521C2.56114 12.2608 2.75422 10.3004 3.49218 8.51884C4.23013 6.73726 5.47982 5.21451 7.08319 4.14317C8.68657 3.07183 10.5716 2.5 12.5 2.5C15.085 2.50273 17.5634 3.53084 19.3913 5.35872C21.2192 7.18661 22.2473 9.66498 22.25 12.25ZM20.75 12.25C20.75 10.6183 20.2661 9.02325 19.3596 7.66655C18.4531 6.30984 17.1646 5.25242 15.6571 4.62799C14.1497 4.00357 12.4909 3.84019 10.8905 4.15852C9.29017 4.47685 7.82016 5.26259 6.66637 6.41637C5.51259 7.57015 4.72685 9.04016 4.40853 10.6405C4.0902 12.2408 4.25358 13.8996 4.878 15.4071C5.50242 16.9146 6.55984 18.2031 7.91655 19.1096C9.27326 20.0161 10.8683 20.5 12.5 20.5C14.6873 20.4975 16.7843 19.6275 18.3309 18.0809C19.8775 16.5343 20.7475 14.4373 20.75 12.25Z" fill="#4F4F4F"/>
</svg>
