<svg width="125" height="125" viewBox="0 0 125 125" fill="none" xmlns="http://www.w3.org/2000/svg">
<rect width="17" height="17" rx="2" fill="#A0E4A0" fill-opacity="0.3"/>
<rect x="27" width="17" height="17" rx="2" fill="#A0E4A0" fill-opacity="0.3"/>
<rect x="54" width="17" height="17" rx="2" fill="#A0E4A0"/>
<rect x="81" width="17" height="17" rx="2" fill="#A0E4A0" fill-opacity="0.3"/>
<rect x="108" width="17" height="17" rx="2" fill="#A0E4A0" fill-opacity="0.3"/>
<rect y="27" width="17" height="17" rx="2" fill="#A0E4A0" fill-opacity="0.3"/>
<rect x="27" y="27" width="17" height="17" rx="2" fill="#A0E4A0"/>
<rect x="54" y="27" width="17" height="17" rx="2" fill="#A0E4A0" fill-opacity="0.3"/>
<rect x="81" y="27" width="17" height="17" rx="2" fill="#A0E4A0" fill-opacity="0.3"/>
<rect x="108" y="27" width="17" height="17" rx="2" fill="#A0E4A0"/>
<rect y="54" width="17" height="17" rx="2" fill="#A0E4A0"/>
<rect x="27" y="54" width="17" height="17" rx="2" fill="#A0E4A0" fill-opacity="0.3"/>
<rect x="54" y="54" width="17" height="17" rx="2" fill="#A0E4A0" fill-opacity="0.3"/>
<rect x="81" y="54" width="17" height="17" rx="2" fill="#A0E4A0"/>
<rect x="108" y="54" width="17" height="17" rx="2" fill="#A0E4A0" fill-opacity="0.3"/>
<rect y="81" width="17" height="17" rx="2" fill="#A0E4A0" fill-opacity="0.3"/>
<rect x="27" y="81" width="17" height="17" rx="2" fill="#A0E4A0" fill-opacity="0.3"/>
<rect x="54" y="81" width="17" height="17" rx="2" fill="#A0E4A0"/>
<rect x="81" y="81" width="17" height="17" rx="2" fill="#A0E4A0" fill-opacity="0.3"/>
<rect x="108" y="81" width="17" height="17" rx="2" fill="#A0E4A0" fill-opacity="0.3"/>
<rect y="108" width="17" height="17" rx="2" fill="#A0E4A0" fill-opacity="0.3"/>
<rect x="27" y="108" width="17" height="17" rx="2" fill="#A0E4A0"/>
<rect x="54" y="108" width="17" height="17" rx="2" fill="#A0E4A0" fill-opacity="0.3"/>
<rect x="81" y="108" width="17" height="17" rx="2" fill="#A0E4A0" fill-opacity="0.3"/>
<rect x="108" y="108" width="17" height="17" rx="2" fill="#A0E4A0"/>
</svg>
