<svg width="25" height="24" viewBox="0 0 25 24" fill="none" xmlns="http://www.w3.org/2000/svg">
<path d="M16.25 14.2499C16.25 14.4488 16.171 14.6395 16.0303 14.7802C15.8897 14.9208 15.6989 14.9999 15.5 14.9999H9.5C9.30109 14.9999 9.11032 14.9208 8.96967 14.7802C8.82902 14.6395 8.75 14.4488 8.75 14.2499C8.75 14.051 8.82902 13.8602 8.96967 13.7195C9.11032 13.5789 9.30109 13.4999 9.5 13.4999H15.5C15.6989 13.4999 15.8897 13.5789 16.0303 13.7195C16.171 13.8602 16.25 14.051 16.25 14.2499ZM15.5 10.4999H9.5C9.30109 10.4999 9.11032 10.5789 8.96967 10.7195C8.82902 10.8602 8.75 11.051 8.75 11.2499C8.75 11.4488 8.82902 11.6395 8.96967 11.7802C9.11032 11.9208 9.30109 11.9999 9.5 11.9999H15.5C15.6989 11.9999 15.8897 11.9208 16.0303 11.7802C16.171 11.6395 16.25 11.4488 16.25 11.2499C16.25 11.051 16.171 10.8602 16.0303 10.7195C15.8897 10.5789 15.6989 10.4999 15.5 10.4999ZM20.75 4.49986V20.2499C20.75 20.6477 20.592 21.0292 20.3107 21.3105C20.0294 21.5918 19.6478 21.7499 19.25 21.7499H5.75C5.35218 21.7499 4.97064 21.5918 4.68934 21.3105C4.40804 21.0292 4.25 20.6477 4.25 20.2499V4.49986C4.25 4.10204 4.40804 3.72051 4.68934 3.4392C4.97064 3.1579 5.35218 2.99986 5.75 2.99986H9.14937C9.57079 2.52804 10.0871 2.15054 10.6645 1.89207C11.2419 1.63361 11.8674 1.5 12.5 1.5C13.1326 1.5 13.7581 1.63361 14.3355 1.89207C14.9129 2.15054 15.4292 2.52804 15.8506 2.99986H19.25C19.6478 2.99986 20.0294 3.1579 20.3107 3.4392C20.592 3.72051 20.75 4.10204 20.75 4.49986ZM9.5 5.99986H15.5C15.5 5.20421 15.1839 4.44115 14.6213 3.87854C14.0587 3.31593 13.2956 2.99986 12.5 2.99986C11.7044 2.99986 10.9413 3.31593 10.3787 3.87854C9.81607 4.44115 9.5 5.20421 9.5 5.99986ZM19.25 4.49986H16.7422C16.9128 4.98157 17 5.48884 17 5.99986V6.74986C17 6.94878 16.921 7.13954 16.7803 7.28019C16.6397 7.42085 16.4489 7.49986 16.25 7.49986H8.75C8.55109 7.49986 8.36032 7.42085 8.21967 7.28019C8.07902 7.13954 8 6.94878 8 6.74986V5.99986C8.00002 5.48884 8.08721 4.98157 8.25781 4.49986H5.75V20.2499H19.25V4.49986Z" fill="black"/>
</svg>
