<svg width="80" height="80" viewBox="0 0 80 80" fill="none" xmlns="http://www.w3.org/2000/svg">
<path d="M35 67.5C35 68.163 34.7366 68.7989 34.2678 69.2678C33.7989 69.7366 33.163 70 32.5 70H15C13.6739 70 12.4021 69.4732 11.4645 68.5355C10.5268 67.5979 10 66.3261 10 65V15C10 13.6739 10.5268 12.4021 11.4645 11.4645C12.4021 10.5268 13.6739 10 15 10H32.5C33.163 10 33.7989 10.2634 34.2678 10.7322C34.7366 11.2011 35 11.837 35 12.5C35 13.163 34.7366 13.7989 34.2678 14.2678C33.7989 14.7366 33.163 15 32.5 15H15V65H32.5C33.163 65 33.7989 65.2634 34.2678 65.7322C34.7366 66.2011 35 66.837 35 67.5ZM69.2688 38.2312L56.7688 25.7312C56.2997 25.2621 55.6634 24.9986 55 24.9986C54.3366 24.9986 53.7004 25.2621 53.2313 25.7312C52.7621 26.2003 52.4986 26.8366 52.4986 27.5C52.4986 28.1634 52.7621 28.7997 53.2313 29.2688L61.4656 37.5H32.5C31.837 37.5 31.2011 37.7634 30.7322 38.2322C30.2634 38.7011 30 39.337 30 40C30 40.663 30.2634 41.2989 30.7322 41.7678C31.2011 42.2366 31.837 42.5 32.5 42.5H61.4656L53.2313 50.7312C52.7621 51.2004 52.4986 51.8366 52.4986 52.5C52.4986 53.1634 52.7621 53.7996 53.2313 54.2688C53.7004 54.7379 54.3366 55.0014 55 55.0014C55.6634 55.0014 56.2997 54.7379 56.7688 54.2688L69.2688 41.7688C69.5012 41.5366 69.6856 41.2608 69.8114 40.9574C69.9372 40.6539 70.002 40.3285 70.002 40C70.002 39.6715 69.9372 39.3461 69.8114 39.0426C69.6856 38.7392 69.5012 38.4634 69.2688 38.2312Z" fill="#EB2F2F"/>
</svg>