<svg width="25" height="24" viewBox="0 0 25 24" fill="none" xmlns="http://www.w3.org/2000/svg">
<path d="M23 12.7496V18.7496C23 19.1474 22.842 19.529 22.5607 19.8103C22.2794 20.0916 21.8978 20.2496 21.5 20.2496H3.5C3.10218 20.2496 2.72064 20.0916 2.43934 19.8103C2.15804 19.529 2 19.1474 2 18.7496V12.7496C2 12.3518 2.15804 11.9703 2.43934 11.689C2.72064 11.4076 3.10218 11.2496 3.5 11.2496H8C8.19891 11.2496 8.38968 11.3286 8.53033 11.4693C8.67098 11.6099 8.75 11.8007 8.75 11.9996C8.75 12.1985 8.67098 12.3893 8.53033 12.5299C8.38968 12.6706 8.19891 12.7496 8 12.7496H3.5V18.7496H21.5V12.7496H17C16.8011 12.7496 16.6103 12.6706 16.4697 12.5299C16.329 12.3893 16.25 12.1985 16.25 11.9996C16.25 11.8007 16.329 11.6099 16.4697 11.4693C16.6103 11.3286 16.8011 11.2496 17 11.2496H21.5C21.8978 11.2496 22.2794 11.4076 22.5607 11.689C22.842 11.9703 23 12.3518 23 12.7496ZM8.53063 7.28024L11.75 4.05993V11.9996C11.75 12.1985 11.829 12.3893 11.9697 12.5299C12.1103 12.6706 12.3011 12.7496 12.5 12.7496C12.6989 12.7496 12.8897 12.6706 13.0303 12.5299C13.171 12.3893 13.25 12.1985 13.25 11.9996V4.05993L16.4694 7.28024C16.6101 7.42097 16.801 7.50003 17 7.50003C17.199 7.50003 17.3899 7.42097 17.5306 7.28024C17.6714 7.13951 17.7504 6.94864 17.7504 6.74961C17.7504 6.55059 17.6714 6.35972 17.5306 6.21899L13.0306 1.71899C12.961 1.64926 12.8783 1.59394 12.7872 1.55619C12.6962 1.51845 12.5986 1.49902 12.5 1.49902C12.4014 1.49902 12.3038 1.51845 12.2128 1.55619C12.1217 1.59394 12.039 1.64926 11.9694 1.71899L7.46937 6.21899C7.32864 6.35972 7.24958 6.55059 7.24958 6.74961C7.24958 6.94864 7.32864 7.13951 7.46938 7.28024C7.61011 7.42097 7.80098 7.50003 8 7.50003C8.19902 7.50003 8.38989 7.42097 8.53063 7.28024ZM19.25 15.7496C19.25 15.5271 19.184 15.3096 19.0604 15.1246C18.9368 14.9396 18.7611 14.7954 18.5555 14.7102C18.35 14.6251 18.1238 14.6028 17.9055 14.6462C17.6873 14.6896 17.4868 14.7968 17.3295 14.9541C17.1722 15.1115 17.065 15.3119 17.0216 15.5301C16.9782 15.7484 17.0005 15.9746 17.0856 16.1801C17.1708 16.3857 17.315 16.5614 17.5 16.685C17.685 16.8086 17.9025 16.8746 18.125 16.8746C18.4234 16.8746 18.7095 16.7561 18.9205 16.5451C19.1315 16.3341 19.25 16.048 19.25 15.7496Z" fill="black"/>
</svg>
