<svg width="25" height="24" viewBox="0 0 25 24" fill="none" xmlns="http://www.w3.org/2000/svg">
<path d="M22.1 20.5491C22.1838 20.6606 22.235 20.7932 22.2476 20.932C22.2603 21.0709 22.234 21.2105 22.1716 21.3353C22.1093 21.46 22.0134 21.5649 21.8948 21.6382C21.7762 21.7115 21.6394 21.7502 21.5 21.7501H3.5C3.36072 21.7501 3.22418 21.7113 3.1057 21.6381C2.98722 21.5648 2.89147 21.4601 2.82918 21.3355C2.76689 21.2109 2.74052 21.0714 2.75303 20.9327C2.76554 20.794 2.81643 20.6615 2.9 20.5501C3.56411 19.6597 4.44971 18.9587 5.46875 18.5166C4.91017 18.0068 4.51878 17.34 4.34595 16.6038C4.17313 15.8676 4.22695 15.0963 4.50034 14.3912C4.77374 13.686 5.25394 13.0801 5.87791 12.6528C6.50188 12.2255 7.24046 11.9968 7.99672 11.9968C8.75297 11.9968 9.49156 12.2255 10.1155 12.6528C10.7395 13.0801 11.2197 13.686 11.4931 14.3912C11.7665 15.0963 11.8203 15.8676 11.6475 16.6038C11.4747 17.34 11.0833 18.0068 10.5247 18.5166C11.2599 18.8344 11.928 19.2891 12.4934 19.8563C13.0589 19.2891 13.727 18.8344 14.4622 18.5166C13.9036 18.0068 13.5122 17.34 13.3394 16.6038C13.1666 15.8676 13.2204 15.0963 13.4938 14.3912C13.7672 13.686 14.2474 13.0801 14.8713 12.6528C15.4953 12.2255 16.2339 11.9968 16.9902 11.9968C17.7464 11.9968 18.485 12.2255 19.109 12.6528C19.7329 13.0801 20.2131 13.686 20.4865 14.3912C20.7599 15.0963 20.8137 15.8676 20.6409 16.6038C20.4681 17.34 20.0767 18.0068 19.5181 18.5166C20.5419 18.9563 21.4322 19.6572 22.1 20.5491ZM3.05 11.8501C3.12879 11.9092 3.21845 11.9522 3.31386 11.9766C3.40927 12.0011 3.50856 12.0065 3.60607 11.9925C3.70357 11.9786 3.79737 11.9456 3.88212 11.8954C3.96687 11.8453 4.04091 11.7789 4.1 11.7001C4.55409 11.0946 5.14291 10.6032 5.81983 10.2647C6.49675 9.92629 7.24318 9.75008 8 9.75008C8.75682 9.75008 9.50325 9.92629 10.1802 10.2647C10.8571 10.6032 11.4459 11.0946 11.9 11.7001C11.9699 11.7932 12.0604 11.8688 12.1646 11.9209C12.2687 11.973 12.3836 12.0001 12.5 12.0001C12.6164 12.0001 12.7313 11.973 12.8354 11.9209C12.9396 11.8688 13.0301 11.7932 13.1 11.7001C13.5541 11.0946 14.1429 10.6032 14.8198 10.2647C15.4968 9.92629 16.2432 9.75008 17 9.75008C17.7568 9.75008 18.5032 9.92629 19.1802 10.2647C19.8571 10.6032 20.4459 11.0946 20.9 11.7001C20.9592 11.7789 21.0333 11.8452 21.1181 11.8954C21.2029 11.9456 21.2967 11.9785 21.3943 11.9924C21.4918 12.0063 21.5911 12.0008 21.6866 11.9763C21.782 11.9518 21.8717 11.9088 21.9505 11.8496C22.0293 11.7905 22.0956 11.7164 22.1458 11.6316C22.1959 11.5467 22.2289 11.4529 22.2428 11.3553C22.2567 11.2578 22.2512 11.1585 22.2267 11.063C22.2022 10.9676 22.1592 10.8779 22.1 10.7991C21.4359 9.90901 20.5503 9.20828 19.5312 8.76664C20.0898 8.25683 20.4812 7.59004 20.654 6.8538C20.8269 6.11756 20.7731 5.34626 20.4997 4.64115C20.2263 3.93605 19.7461 3.33007 19.1221 2.90278C18.4981 2.47548 17.7595 2.24683 17.0033 2.24683C16.247 2.24683 15.5084 2.47548 14.8845 2.90278C14.2605 3.33007 13.7803 3.93605 13.5069 4.64115C13.2335 5.34626 13.1797 6.11756 13.3525 6.8538C13.5253 7.59004 13.9167 8.25683 14.4753 8.76664C13.7401 9.08443 13.072 9.53906 12.5066 10.1063C11.9411 9.53906 11.273 9.08443 10.5378 8.76664C11.0964 8.25683 11.4878 7.59004 11.6606 6.8538C11.8334 6.11756 11.7796 5.34626 11.5062 4.64115C11.2328 3.93605 10.7526 3.33007 10.1287 2.90278C9.50468 2.47548 8.7661 2.24683 8.00984 2.24683C7.25359 2.24683 6.515 2.47548 5.89103 2.90278C5.26706 3.33007 4.78686 3.93605 4.51347 4.64115C4.24007 5.34626 4.18625 6.11756 4.35908 6.8538C4.5319 7.59004 4.92329 8.25683 5.48188 8.76664C4.45805 9.2067 3.56774 9.9079 2.9 10.8001C2.84091 10.8789 2.79791 10.9685 2.77347 11.0639C2.74902 11.1594 2.74361 11.2586 2.75754 11.3561C2.77147 11.4536 2.80446 11.5475 2.85464 11.6322C2.90483 11.7169 2.97121 11.791 3.05 11.8501Z" fill="#59D3D4"/>
</svg>
