<svg width="39" height="39" viewBox="0 0 39 39" fill="none" xmlns="http://www.w3.org/2000/svg">
<rect width="39" height="39" rx="19.5" fill="white"/>
<path d="M28.25 14.25H13.25C13.0511 14.25 12.8603 14.171 12.7197 14.0303C12.579 13.8897 12.5 13.6989 12.5 13.5C12.5 13.3011 12.579 13.1103 12.7197 12.9697C12.8603 12.829 13.0511 12.75 13.25 12.75H26C26.1989 12.75 26.3897 12.671 26.5303 12.5303C26.671 12.3897 26.75 12.1989 26.75 12C26.75 11.8011 26.671 11.6103 26.5303 11.4697C26.3897 11.329 26.1989 11.25 26 11.25H13.25C12.6533 11.25 12.081 11.4871 11.659 11.909C11.2371 12.331 11 12.9033 11 13.5V25.5C11 26.0967 11.2371 26.669 11.659 27.091C12.081 27.5129 12.6533 27.75 13.25 27.75H28.25C28.6478 27.75 29.0294 27.592 29.3107 27.3107C29.592 27.0294 29.75 26.6478 29.75 26.25V15.75C29.75 15.3522 29.592 14.9706 29.3107 14.6893C29.0294 14.408 28.6478 14.25 28.25 14.25ZM28.25 26.25H13.25C13.0511 26.25 12.8603 26.171 12.7197 26.0303C12.579 25.8897 12.5 25.6989 12.5 25.5V15.6216C12.7408 15.7069 12.9945 15.7504 13.25 15.75H28.25V26.25ZM23.75 20.625C23.75 20.4025 23.816 20.185 23.9396 20C24.0632 19.815 24.2389 19.6708 24.4445 19.5856C24.65 19.5005 24.8762 19.4782 25.0945 19.5216C25.3127 19.565 25.5132 19.6722 25.6705 19.8295C25.8278 19.9868 25.935 20.1873 25.9784 20.4055C26.0218 20.6238 25.9995 20.85 25.9144 21.0555C25.8292 21.2611 25.685 21.4368 25.5 21.5604C25.315 21.684 25.0975 21.75 24.875 21.75C24.5766 21.75 24.2905 21.6315 24.0795 21.4205C23.8685 21.2095 23.75 20.9234 23.75 20.625Z" fill="#652D90"/>
</svg>
